<svg xmlns="http://www.w3.org/2000/svg" width="216" height="216" viewBox="0 0 216 216">
  <g>
    <path d="M193.5,95.29V54A13.52,13.52,0,0,0,180,40.5H36A13.52,13.52,0,0,0,22.5,54V95.29a13.52,13.52,0,0,0-9,12.71v45a13.52,13.52,0,0,0,9,12.71v9.79h27v-9h117v9h27v-9.79a13.51,13.51,0,0,0,9-12.71V108A13.51,13.51,0,0,0,193.5,95.29ZM36,49.5H180a4.51,4.51,0,0,1,4.5,4.5V94.5H31.5V54A4.51,4.51,0,0,1,36,49.5Zm-9,54H189a4.51,4.51,0,0,1,4.5,4.5v13.5H22.5V108A4.51,4.51,0,0,1,27,103.5Zm162,54H27a4.51,4.51,0,0,1-4.5-4.5V130.5h171V153A4.51,4.51,0,0,1,189,157.5Z"/>
    <path d="M121.5,72a4.56,4.56,0,0,1,4.5-4.5h36a4.27,4.27,0,0,1,4.5,4.5V90h9V72A13.2,13.2,0,0,0,162,58.5H126A13.52,13.52,0,0,0,112.5,72V90h9Z"/>
    <path d="M49.5,72A4.56,4.56,0,0,1,54,67.5H90A4.27,4.27,0,0,1,94.5,72V90h9V72A13.2,13.2,0,0,0,90,58.5H54A13.52,13.52,0,0,0,40.5,72V90h9Z"/>
  </g>
</svg>
