<svg xmlns="http://www.w3.org/2000/svg" width="216" height="216" viewBox="0 0 216 216">
  <path d="M180.91,195.88l-18.44-129-8.91,1.27,2.51,17.57a16.94,16.94,0,0,0-4.35-.55H134.54L115,58.11l-1-.11a23.71,23.71,0,0,0,12.4-20.75,24.13,24.13,0,0,0-48.25,0,23.51,23.51,0,0,0,8.23,17.84l-8.1-.85,0-.2a41.28,41.28,0,0,0-18.27.46C52.47,56.62,47.36,61.43,45.71,68c-1,4-2.46,9.78-4,15.71-2.76,10.93-5.61,22.24-6.23,25-1.78,7.86,2.3,12,6.72,13.22,2.79.78,12.72,2.64,17.12,3.44l-.74,2.83.06,0C55.53,139.67,45,177.7,43.38,183.53c-2.34,8.28,1.46,15.76,9.25,18.21a16.31,16.31,0,0,0,4.87.76,14.11,14.11,0,0,0,6.9-1.76,15.12,15.12,0,0,0,7.16-9.67c1.48-5.72,9.24-34.95,12.27-46.36l17.37,11.36,6,33.59,0,.12c1.61,7.65,7.5,12.68,14.45,12.68a14,14,0,0,0,2.3-.19,14.26,14.26,0,0,0,9.61-5.76,15.68,15.68,0,0,0,2.23-12.19l-7.65-43.46-24.27-17.43,5.52-25,10,14,32.22.37h.06a15.76,15.76,0,0,0,7.93-2L172,197.15ZM102.33,22.5a15,15,0,0,1,15.12,14.75,15.13,15.13,0,0,1-30.25,0A15,15,0,0,1,102.33,22.5ZM44.67,113.28a1.3,1.3,0,0,1-.46-.19,3.93,3.93,0,0,1,.08-2.37c.6-2.64,3.57-14.39,6.19-24.77,1.5-5.94,3-11.69,4-15.73,1.05-4.2,7.72-9.8,21.14-7.52l-14,54C55.51,115.54,46.79,113.88,44.67,113.28Zm18.17,75.54A6.15,6.15,0,0,1,60,192.87a5.85,5.85,0,0,1-4.7.28c-3.06-1-4.29-3.64-3.29-7.16,1.54-5.45,10.73-38.73,14.55-52.56l9.31,6.09C73.74,147.64,64.48,182.49,62.84,188.82Zm88.9-85-27.63-.32L105,76.76,93.87,127.28,120,146l7,39.91a7,7,0,0,1-.74,5.39,5.34,5.34,0,0,1-3.65,2c-2.59.41-5.6-1.1-6.53-5.39l-6.71-37.33L69,124.23,84.55,64l25.53,2.69,19.86,27.55h21.78c4.75,0,5.46,3.06,5.46,4.89C157.18,102.12,155.25,103.8,151.74,103.8Z"/>
</svg>
