<svg xmlns="http://www.w3.org/2000/svg" width="216" height="216" viewBox="0 0 216 216">
  <path d="M202.34,40.51,144.6,34.09c-18.3-2.93-28.77-3.41-35.18,2a14.46,14.46,0,0,0-1.52,1.51,13.22,13.22,0,0,0-1.26-1.22c-6.37-5.47-16.87-5.08-35.22-2.34L12.94,40.5,8.47,169.33l5.76,14.72H200.89l6.64-14.61ZM72.49,43l.17,0c14.63-2.18,24.44-2.9,28.12.26,1.06.91,2.44,2.75,2.75,8.23,0,.7,0,1.39,0,2.06v90h9V58.05h.11l0-4.52c0-.65,0-1.34,0-2.06.27-5.71,1.65-7.57,2.71-8.48,3.69-3.14,13.87-2.27,28,0l50.37,5.6,4.65,115.12-54.08-3.66-.86,0c-13.86-.72-27-1.38-34.41,5.62a13.66,13.66,0,0,0-1.63-1.79c-6.42-5.9-17.74-5.28-35.63-3.79l-54,3.67,4-115.13ZM19.42,172.63l53-3.59c14.65-1.23,25.3-1.84,28.85,1.43.71.65,1.59,1.82,2,4.58H20.37Zm93.86,2.42a7.18,7.18,0,0,1,1.79-2.82c4.65-4.42,16.43-3.81,27.83-3.23l53.31,3.6-1.11,2.45Z"/>
</svg>
