<svg xmlns="http://www.w3.org/2000/svg" width="216" height="216" viewBox="0 0 216 216">
  <g>
    <path d="M180,31.5H166.5c2.95-23.85-29.95-23.84-27,0h-18c3-23.85-29.95-23.84-27,0h-18c3-23.85-29.95-23.84-27,0-10.84-.28-26.59-1.72-27,13.5V171A13.52,13.52,0,0,0,36,184.5H180A13.52,13.52,0,0,0,193.5,171V45A13.52,13.52,0,0,0,180,31.5ZM148.5,27c-.08-5.83,9.08-5.84,9,0V54a4.5,4.5,0,0,1-9,0Zm-45,0c-.08-5.83,9.08-5.84,9,0V54a4.5,4.5,0,0,1-9,0Zm-45,0c-.08-5.83,9.08-5.84,9,0V54a4.5,4.5,0,0,1-9,0ZM36,40.5H49.5c-.29,10.92-1.7,26.57,13.5,27,15.2-.43,13.8-16.09,13.5-27h18c-.29,10.92-1.7,26.57,13.5,27,15.2-.43,13.8-16.09,13.5-27h18c-.29,10.92-1.7,26.57,13.5,27,15.2-.43,13.8-16.09,13.5-27,4,.81,18.22-2.8,18,4.5V76.5H31.5V45A4.51,4.51,0,0,1,36,40.5Zm144,135H36a4.51,4.51,0,0,1-4.5-4.5V85.5h153V171A4.51,4.51,0,0,1,180,175.5Z"/>
    <path d="M49.5,157.5h117v-54H49.5Zm9-45h99v36h-99Z"/>
  </g>
</svg>
