<svg xmlns="http://www.w3.org/2000/svg" width="216" height="216" viewBox="0 0 216 216">
  <g>
    <path d="M182.82,88.2l-9.68-42L173,45.8c-1.11-3.26-4.49-13.18-14.38-13.18H57.38c-4.61,0-10.84,2.3-14.41,13.23L33.18,88.2C26.9,92.88,22.5,100.31,22.5,108v60.75c0,10.73,8.75,14.62,14.63,14.62H47.25c5.88,0,14.63-3.89,14.63-14.62V153h92.25v15.75c0,10.73,8.74,14.62,14.62,14.62h10.13c5.87,0,14.62-3.89,14.62-14.62V108C193.5,100.31,189.1,92.88,182.82,88.2ZM51.59,48.46c2.27-6.84,4.91-6.84,5.79-6.84H158.63c1.68,0,3.69.83,5.79,6.87l8.1,35.11a20.66,20.66,0,0,0-3.77-.35h-6a24.75,24.75,0,0,0-48.67,0H47.25a20.66,20.66,0,0,0-3.77.35ZM153.46,83.25H123.29a15.74,15.74,0,0,1,30.17,0ZM52.88,168.75c0,4.79-3.56,5.58-5.63,5.62H37.17c-2.12,0-5.67-.83-5.67-5.62V146.69A24.32,24.32,0,0,0,47.25,153h5.63Zm126,5.62H168.8c-2.12,0-5.67-.83-5.67-5.62V153h5.62a24.32,24.32,0,0,0,15.75-6.31v22.06C184.5,173.54,181,174.33,178.88,174.37ZM168.75,144H47.25c-7.65,0-15.75-8.1-15.75-15.75V108c0-7.65,8.1-15.75,15.75-15.75h121.5c7.65,0,15.75,8.1,15.75,15.75v20.25C184.5,135.9,176.4,144,168.75,144Z"/>
    <path d="M57.38,103.5A14.63,14.63,0,1,0,72,118.12,14.64,14.64,0,0,0,57.38,103.5Zm0,20.25A5.63,5.63,0,1,1,63,118.12,5.63,5.63,0,0,1,57.38,123.75Z"/>
    <path d="M158.63,103.5a14.63,14.63,0,1,0,14.62,14.62A14.64,14.64,0,0,0,158.63,103.5Zm0,20.25a5.63,5.63,0,1,1,5.62-5.63A5.63,5.63,0,0,1,158.63,123.75Z"/>
  </g>
</svg>
