<svg xmlns="http://www.w3.org/2000/svg" width="216" height="216" viewBox="0 0 216 216">
  <path d="M171.76,151l-4-8-4,8c-.08.15-8.06,15.52-23,15.52s-22.9-15.37-23-15.51l-4-8-4,8c-.08.15-8.06,15.52-23,15.52s-22.9-15.37-23-15.51l-4-8-4,8A32.48,32.48,0,0,1,53,155.15L30.23,94.5h137.5a27.46,27.46,0,0,1,23,15.51l8-4a36.1,36.1,0,0,0-17.53-17.2V54a13.2,13.2,0,0,0-13.5-13.5h-54A13.06,13.06,0,0,0,100.23,54v4.5h-4.5A13.21,13.21,0,0,0,82.23,72V85.5h-65L46,162.06a22.53,22.53,0,0,1-13.22,4.44v9c13.35,0,22.28-8.3,27-14.34,4.73,6,13.66,14.34,27,14.34s22.28-8.3,27-14.34c4.73,6,13.66,14.34,27,14.34s22.28-8.3,27-14.34c4.73,6,13.66,14.34,27,14.34v-9C179.81,166.5,171.83,151.13,171.76,151ZM109.23,54a4.19,4.19,0,0,1,4.5-4.5h54a4.18,4.18,0,0,1,4.5,4.5v4.5h-63Zm-18,18a4.22,4.22,0,0,1,4.5-4.5h76.5V86a28,28,0,0,0-4.5-.47H91.23Z"/>
</svg>
