<svg xmlns="http://www.w3.org/2000/svg" width="216" height="216" viewBox="0 0 216 216">
  <g>
    <path d="M99,149.42c13.67,0,22.5-10.6,22.5-27s-8.83-27-22.5-27-22.5,10.6-22.5,27S85.33,149.42,99,149.42Zm0-45c12.18,0,13.5,12.59,13.5,18s-1.32,18-13.5,18-13.5-12.59-13.5-18S86.82,104.42,99,104.42Z"/>
    <path d="M199.51,66.18,50.71,30.58l-12,50.3H22.5v86.54h153v-18l3.88.93Zm-33,92.24H31.5V89.88h135ZM103.85,80.88c2.25-5.47,6.84-11.75,15.79-9.61,5.25,1.26,8.4,4.49,9.43,9.61Zm34.33,0c-1.25-9.53-7.07-16.12-16.45-18.36-12.53-3-23.07,4.16-27.44,18.36H47.93l9.44-39.46,131.3,31.42-13.17,55v-47Z"/>
  </g>
</svg>
