<svg xmlns="http://www.w3.org/2000/svg" width="216" height="216" viewBox="0 0 216 216">
  <g>
    <polygon points="172.7 115.06 159.13 145.81 135.91 86.11 114.72 128.49 95.86 100.2 83.24 112.82 75.04 112.82 75.04 121.82 86.97 121.82 94.46 114.32 115.84 146.38 134.88 108.29 158.61 169.3 178.57 124.06 195.75 124.06 195.75 115.06 172.7 115.06"/>
    <path d="M105.22,181.67a435.72,435.72,0,0,1-36.87-38.42C42.77,112.85,29.25,86.5,29.25,67a35.74,35.74,0,1,1,71.47,0h9a35.74,35.74,0,1,1,71.47,0c0,8.24-2.42,17.77-7.19,28.32l8.2,3.71c5.3-11.72,8-22.5,8-32a44.73,44.73,0,0,0-85-19.55A44.73,44.73,0,0,0,20.25,67c0,51.74,78.66,121.16,82,124.09l3,2.59,3-2.59a421.07,421.07,0,0,0,30.54-30.38l-6.65-6.07C120.55,167.32,110.13,177.17,105.22,181.67Z"/>
  </g>
</svg>
