<svg xmlns="http://www.w3.org/2000/svg" width="216" height="216" viewBox="0 0 216 216">
  <path d="M108,203.3l-1.83-.81a179.33,179.33,0,0,1-41.66-27.75c-27.48-24.43-42-53.6-42-84.36V40.88H27c.44,0,44.83-.37,78.26-26.07L108,12.7l2.74,2.11c33.43,25.7,77.82,26.06,78.26,26.07h4.5v49.5c0,30.76-14.53,59.93-42,84.36a179.33,179.33,0,0,1-41.66,27.75Zm-1.83-9ZM31.5,49.72V90.38c0,62.38,64.71,97.19,76.5,103a177.46,177.46,0,0,0,37.7-25.54c25.75-23,38.8-49,38.8-77.47V49.72C172.2,49,137.3,45.13,108,24,78.7,45.13,43.8,49,31.5,49.72Z"/>
  <path d="M121.5,148.88h-27v-27h-27v-27h27v-27h27v27h27v27h-27Zm-18-9h9v-27h27v-9h-27v-27h-9v27h-27v9h27Z"/>
</svg>
