<svg xmlns="http://www.w3.org/2000/svg" width="216" height="216" viewBox="0 0 216 216">
  <path d="M201.23,86.87h0c-4-4.14-8.17-8.84-12.18-13.38-14.34-16.22-29.16-33-45.05-33-10.21,0-17.34,5.86-23.64,11-4.55,3.74-8.48,7-12.36,7-4.83,0-8.85-3.41-13.5-7.37C88.63,46.15,82,40.5,72,40.5c-15.89,0-30.72,16.77-45,33-4,4.55-8.16,9.24-12.18,13.37-.83.86-8,8.82-.8,23.15,21.43,42.84,53.94,65.49,94,65.49s72.6-22.65,94-65.49C209.1,95.87,202.39,88.06,201.23,86.87ZM33.69,79.45C46.71,64.73,60.16,49.5,72,49.5c6.68,0,11.53,4.12,16.67,8.49,5.5,4.68,11.19,9.51,19.33,9.51,7.1,0,12.68-4.58,18.08-9,5.62-4.62,10.93-9,17.92-9,11.84,0,25.29,15.23,38.3,30,4.09,4.62,8.31,9.4,12.47,13.68h-.05l.15.12a5,5,0,0,1,.72,1.24c-15.24-.18-25.51-2-36.35-4-13.31-2.43-27.08-5-51.24-5s-37.93,2.52-51.24,5c-10.83,2-21.09,3.85-36.3,4a5.09,5.09,0,0,1,.77-1.35C25.39,88.85,29.61,84.07,33.69,79.45Zm142.44,22.81-1.83,1c-14,7.7-33.22,18.24-66.3,18.24-26.53,0-46.49-9.72-62.53-17.53l-4-1.92c6-.76,11.34-1.74,16.86-2.75,12.92-2.36,26.28-4.8,49.63-4.8s36.71,2.44,49.63,4.8C163.66,100.4,169.52,101.47,176.13,102.26ZM108,166.5c-46,0-72.17-32.91-86-60.51-.38-.77-.68-1.49-.95-2.18,5.55,1,12.55,4.4,20.46,8.25,16,7.78,37.87,18.44,66.47,18.44,35.39,0,55.76-11.18,70.64-19.35,6.35-3.49,11.61-6.38,16.29-7.32a22.91,22.91,0,0,1-1,2.16C180.17,133.59,154.05,166.5,108,166.5Z"/>
</svg>
