<svg xmlns="http://www.w3.org/2000/svg" width="216" height="216" viewBox="0 0 216 216">
  <path d="M172.82,43.17C165.65,36,157.76,31.67,150,30.64c-9-1.19-17.59,2-24.89,9.35L40.77,124.32l-1,1-9.09,60,60-9.09L176,90.9C189.75,77.17,188.53,58.88,172.82,43.17Zm-6.36,6.37c6.54,6.54,15.4,18.89,6.12,31.58l-37.7-37.7C147.57,34.14,159.92,43,166.46,49.54ZM47.07,137l31.95,32-19.34,2.93L44.14,156.32Zm3.25-9.48,65.23-65.23,38.18,38.18L88.5,165.68Zm71.59-71.6,6.37-6.36,38.18,38.18-6.36,6.37ZM42.46,167.37l6.17,6.17-7.27,1.1Z"/>
</svg>
