<svg xmlns="http://www.w3.org/2000/svg" width="216" height="216" viewBox="0 0 216 216">
  <path d="M156.41,189.34c-7,0-16-2-27.35-7.52-17-8.19-36.22-22.63-54.25-40.66S42.34,103.87,34.15,86.92c-12.5-25.89-7.1-39.36-.36-46.09L47.9,26.71a14.56,14.56,0,0,1,20.53.05L96.85,55.18a14.91,14.91,0,0,1,.05,20.53L83.49,89.12c.71,3.15,6.76,12.4,18.86,24.5s21.36,18.16,24.51,18.87l13.41-13.41a14.6,14.6,0,0,1,10.11-4.2h.15a14.41,14.41,0,0,1,10.27,4.25l28.42,28.42a14.54,14.54,0,0,1,.05,20.53l-14.12,14.11C171.36,186,165.45,189.34,156.41,189.34ZM58.19,31.49a5.57,5.57,0,0,0-3.92,1.59L40.15,47.19c-4.73,4.73-5.75,12.26-3,22.37,10.36,38.68,70.63,98.95,109.31,109.31,10.11,2.71,17.64,1.69,22.37-3l14.11-14.12a5.39,5.39,0,0,0,1.6-3.91,5.62,5.62,0,0,0-1.64-3.89l-28.43-28.42a5.58,5.58,0,0,0-7.8,0l-14.11,14.11c-5.63,5.63-17.92-1-36.53-19.57a141.54,141.54,0,0,1-16.31-19.07c-2.3-3.37-8.4-12.32-3.26-17.46L90.53,69.34a5.89,5.89,0,0,0,0-7.8L62.07,33.12A5.45,5.45,0,0,0,58.19,31.49Z"/>
</svg>
