<svg xmlns="http://www.w3.org/2000/svg" width="120" height="175" style=""><rect id="backgroundrect" width="110.18585968017578" height="160.50645446777344" x="6.306306838989258" y="8.108108520507812" fill="none" stroke="none" class="" style=""/>
  
<g class="currentLayer" style=""><title>Layer 1</title><g id="svg_1" class="">
    <path d="M60.222921907901764,0.7150641977787018 A58.56,58.56 0 0 0 1.7229219079017648,59.2150641977787 c0,37.07 52.66,107.71 54.9,110.7 L60.222921907901764,174.7150641977787 l3.6,-4.8 c2.24,-3 54.9,-73.63 54.9,-110.7 A58.56,58.56 0 0 0 60.222921907901764,0.7150641977787018 zm0,158.85 c-12,-16.71 -49.5,-71.53 -49.5,-100.35 a49.5,49.5 0 0 1 99,0 C109.72292190790176,88.0250641977787 72.22292190790176,142.8550641977787 60.222921907901764,159.5650641977787 z" id="svg_2"/>
    <path d="M60.222921907901764,27.715064197778702 a31.5,31.5 0 1 0 31.5,31.5 A31.53,31.53 0 0 0 60.222921907901764,27.715064197778702 zm0,54 a22.5,22.5 0 1 1 22.5,-22.5 A22.52,22.52 0 0 1 60.222921907901764,81.7150641977787 z" id="svg_3"/>
  </g></g></svg>