<svg xmlns="http://www.w3.org/2000/svg" width="216" height="216" viewBox="0 0 216 216">
  <path d="M80.49,205.51l-28-42-42-28,18.57-18.58,37.75,12.59L100.19,85l-77-51.31L42,14.92l89.09,38.19,36-36A22.5,22.5,0,0,1,198.92,48.9l-36,36L201.08,174l-18.77,18.77-51.31-77L86.48,149.19l12.59,37.75Zm-55.88-71.4L59,157l22.91,34.37,6.88-6.88L75.89,145.88l57.32-43,50.5,75.76,6.7-6.69-38.19-89.1,40.34-40.34a13.5,13.5,0,0,0-19.09-19.09L133.13,63.78,44,25.59l-6.69,6.7,75.76,50.5-43,57.32L31.49,127.23Z"/>
</svg>
