<svg xmlns="http://www.w3.org/2000/svg" width="216" height="216" viewBox="0 0 216 216">
  <path d="M160.72,164.56A162.26,162.26,0,0,0,121,153.78c10.44-3,20.13-9.65,28.1-19.42a74.32,74.32,0,0,0,16.59-46.2A74.33,74.33,0,0,0,149.09,42C137.89,28.22,123.3,20.66,108,20.66S78.11,28.22,66.91,42A74.33,74.33,0,0,0,50.32,88.16a74.32,74.32,0,0,0,16.59,46.2c8,9.77,17.66,16.4,28.1,19.42a162.38,162.38,0,0,0-39.73,10.78C28.19,175.92,22.5,188,22.5,196.16h9c0-17,49.08-34.32,76.5-34.32s76.5,17.3,76.5,34.32h9C193.5,188,187.81,175.92,160.72,164.56ZM59.32,88.16c0-30.62,23.2-58.5,48.68-58.5s48.68,27.88,48.68,58.5-23.2,58.5-48.68,58.5S59.32,118.77,59.32,88.16Z"/>
</svg>
