<svg xmlns="http://www.w3.org/2000/svg" width="216" height="216" viewBox="0 0 216 216">
  <defs>
    <style>
      .a {
        fill: none;
      }
    </style>
  </defs>
  <g>
    <path d="M150.28,85.5A42.55,42.55,0,1,0,107.74,128,42.58,42.58,0,0,0,150.28,85.5ZM107.74,119A33.54,33.54,0,1,1,141.28,85.5,33.58,33.58,0,0,1,107.74,119Z"/>
    <path d="M169.66,130.49V105.62L184.27,85.5,169.66,65.38V40.51L146,32.83,131.39,12.71l-23.65,7.68L84.09,12.71,69.47,32.83,45.82,40.51V65.38L31.2,85.5l14.62,20.12v24.87l9.76,3.17-19.27,46L68,175.42l17.8,25.84,20.93-50.34,1-.31,1,.31,20.93,50.34,17.8-25.84,31.74,4.28-19.28-46Zm-85.78,52L72.32,165.77l-21.64,2.91,13.49-32.23,5.3,1.72,14.62,20.12,11.41-3.71Zm3.64-34.83L75,130.52,54.82,124V102.69L42.33,85.5,54.82,68.31V47.05L75,40.48,87.52,23.29l20.22,6.57L128,23.29l12.49,17.19,20.22,6.57V68.31L173.15,85.5l-12.49,17.19V124l-20.22,6.57L128,147.71l-20.21-6.57Zm77.28,21-21.65-2.91L131.6,182.54l-11.63-28,11.42,3.71L146,138.17l5.3-1.72Z"/>
  </g>
  <rect class="a" width="216" height="216"/>
</svg>
